<?xml version="1.0" encoding="utf-8"?>
<svg width="257" height="54" viewBox="-57.41 -6.718 471.775 78.588" fill="#18181B" xmlns="http://www.w3.org/2000/svg">
  <path d="M 14.03 2.725 L 14.03 11.938 C 23.813 13.413 31.342 22.263 31.342 32.981 C 31.342 35.703 30.838 38.303 29.958 40.689 L 37.46 45.357 C 39.062 41.572 40 37.406 40 32.981 C 40 17.214 28.617 4.26 14.03 2.725 Z M 11.145 54.267 C -0.008 54.267 -9.055 44.733 -9.055 32.981 C -9.055 22.263 -1.523 13.413 8.259 11.938 L 8.259 2.725 C -6.342 4.245 -17.712 17.214 -17.712 32.981 C -17.712 49.782 -4.813 63.39 11.129 63.39 C 20.681 63.39 29.122 58.479 34.373 50.954 L 26.884 46.301 C 23.191 51.151 17.521 54.267 11.145 54.267 Z" fill="url(#paint0_linear_44_153)" style=""/>
  <defs>
    <linearGradient id="paint0_linear_44_153" x1="40" y1="7" x2="-7.20049" y2="19.3253" gradientUnits="userSpaceOnUse" gradientTransform="matrix(1.442792, 0, 0, 1.520438, -17.711686, -7.918349)">
      <stop stop-color="#4FC5EB"/>
      <stop offset="1" stop-color="#5D52D8"/>
    </linearGradient>
  </defs>
  <text style="font-family: Roboto; font-size: 34px; font-weight: 550; white-space: pre;" x="48.457" y="27.177" dx="6.187" dy="10.783" transform="matrix(1.392132, 0, 0, 1.588309, -20.20616, -7.676379)">ResumeFactory</text>
</svg>